<mxfile host="app.diagrams.net" modified="2023-09-04T02:23:15.250Z" agent="Mozilla/5.0 (Windows NT 10.0; Win64; x64) AppleWebKit/537.36 (KHTML, like Gecko) Chrome/95.0.4638.69 Safari/537.36" etag="Rp4HG_DPuE5pgCLtJTtq" version="21.5.2" type="github">
  <diagram name="第 1 页" id="xIRtXXGn481l6FrESkQN">
    <mxGraphModel dx="1562" dy="979" grid="1" gridSize="10" guides="1" tooltips="1" connect="1" arrows="1" fold="1" page="1" pageScale="1" pageWidth="1600" pageHeight="1200" math="0" shadow="0">
      <root>
        <mxCell id="0" />
        <mxCell id="1" parent="0" />
        <mxCell id="4CS2FM6U55fI_8ZflwGE-1" value="&lt;p style=&quot;line-height: 1.2;&quot;&gt;&lt;span style=&quot;font-size: 16px; background-color: initial;&quot;&gt;备份回收业务流程&lt;/span&gt;&lt;/p&gt;" style="swimlane;html=1;childLayout=stackLayout;startSize=60;rounded=0;shadow=0;labelBackgroundColor=none;strokeWidth=1;fontFamily=Verdana;fontSize=8;align=center;glass=0;" parent="1" vertex="1">
          <mxGeometry x="150" y="40" width="1020" height="850" as="geometry" />
        </mxCell>
        <mxCell id="4CS2FM6U55fI_8ZflwGE-2" value="&lt;font style=&quot;font-size: 14px;&quot;&gt;Director&lt;/font&gt;" style="swimlane;html=1;startSize=40;" parent="4CS2FM6U55fI_8ZflwGE-1" vertex="1">
          <mxGeometry y="60" width="360" height="790" as="geometry" />
        </mxCell>
        <mxCell id="4CS2FM6U55fI_8ZflwGE-3" value="" style="edgeStyle=orthogonalEdgeStyle;rounded=0;orthogonalLoop=1;jettySize=auto;html=1;" parent="4CS2FM6U55fI_8ZflwGE-2" source="4CS2FM6U55fI_8ZflwGE-4" target="4CS2FM6U55fI_8ZflwGE-5" edge="1">
          <mxGeometry relative="1" as="geometry" />
        </mxCell>
        <mxCell id="4CS2FM6U55fI_8ZflwGE-4" value="自动任务调度" style="rounded=1;whiteSpace=wrap;html=1;shadow=0;labelBackgroundColor=none;strokeWidth=1;fontFamily=Verdana;fontSize=8;align=center;fillColor=#dae8fc;strokeColor=#6c8ebf;sketch=1;fillStyle=auto;" parent="4CS2FM6U55fI_8ZflwGE-2" vertex="1">
          <mxGeometry x="95" y="70" width="110" height="60" as="geometry" />
        </mxCell>
        <mxCell id="4CS2FM6U55fI_8ZflwGE-5" value="校验参数？" style="rhombus;whiteSpace=wrap;html=1;fontSize=8;fontFamily=Verdana;fillColor=#ffe6cc;strokeColor=#d79b00;rounded=1;shadow=0;labelBackgroundColor=none;strokeWidth=1;sketch=1;fillStyle=auto;" parent="4CS2FM6U55fI_8ZflwGE-2" vertex="1">
          <mxGeometry x="110" y="195" width="80" height="80" as="geometry" />
        </mxCell>
        <mxCell id="4CS2FM6U55fI_8ZflwGE-6" value="任务失败" style="whiteSpace=wrap;html=1;fontSize=8;fontFamily=Verdana;fillColor=#f8cecc;strokeColor=#b85450;rounded=1;shadow=0;labelBackgroundColor=none;strokeWidth=1;sketch=1;fillStyle=auto;" parent="4CS2FM6U55fI_8ZflwGE-2" vertex="1">
          <mxGeometry x="90" y="345" width="120" height="60" as="geometry" />
        </mxCell>
        <mxCell id="4CS2FM6U55fI_8ZflwGE-7" value="" style="edgeStyle=orthogonalEdgeStyle;rounded=0;orthogonalLoop=1;jettySize=auto;html=1;" parent="4CS2FM6U55fI_8ZflwGE-2" source="4CS2FM6U55fI_8ZflwGE-5" target="4CS2FM6U55fI_8ZflwGE-6" edge="1">
          <mxGeometry relative="1" as="geometry" />
        </mxCell>
        <mxCell id="4CS2FM6U55fI_8ZflwGE-8" value="&lt;font color=&quot;#000000&quot;&gt;接收显示任务状态&lt;/font&gt;" style="whiteSpace=wrap;html=1;fontSize=8;fontFamily=Verdana;fillColor=#60a917;strokeColor=#2D7600;rounded=1;shadow=0;labelBackgroundColor=none;strokeWidth=1;sketch=1;fillStyle=auto;fontColor=#ffffff;" parent="4CS2FM6U55fI_8ZflwGE-2" vertex="1">
          <mxGeometry x="90" y="442" width="120" height="60" as="geometry" />
        </mxCell>
        <mxCell id="4CS2FM6U55fI_8ZflwGE-9" value="False" style="text;html=1;align=center;verticalAlign=middle;resizable=0;points=[];autosize=1;strokeColor=none;fillColor=none;" parent="4CS2FM6U55fI_8ZflwGE-2" vertex="1">
          <mxGeometry x="150" y="290" width="50" height="30" as="geometry" />
        </mxCell>
        <mxCell id="4CS2FM6U55fI_8ZflwGE-10" value="&lt;font style=&quot;font-size: 14px;&quot;&gt;客户端MQ&lt;/font&gt;" style="swimlane;html=1;startSize=40;" parent="4CS2FM6U55fI_8ZflwGE-1" vertex="1">
          <mxGeometry x="360" y="60" width="330" height="790" as="geometry">
            <mxRectangle x="250" y="20" width="40" height="730" as="alternateBounds" />
          </mxGeometry>
        </mxCell>
        <mxCell id="4CS2FM6U55fI_8ZflwGE-11" value="" style="edgeStyle=orthogonalEdgeStyle;rounded=0;orthogonalLoop=1;jettySize=auto;html=1;entryX=0.5;entryY=0;entryDx=0;entryDy=0;" parent="4CS2FM6U55fI_8ZflwGE-10" source="4CS2FM6U55fI_8ZflwGE-12" target="4CS2FM6U55fI_8ZflwGE-14" edge="1">
          <mxGeometry relative="1" as="geometry">
            <mxPoint x="80" y="460" as="targetPoint" />
          </mxGeometry>
        </mxCell>
        <mxCell id="4CS2FM6U55fI_8ZflwGE-12" value="消息处理器" style="whiteSpace=wrap;html=1;fontSize=8;fontFamily=Verdana;fillColor=#e1d5e7;strokeColor=#9673a6;rounded=1;shadow=0;labelBackgroundColor=none;strokeWidth=1;sketch=1;fillStyle=auto;perimeterSpacing=0;" parent="4CS2FM6U55fI_8ZflwGE-10" vertex="1">
          <mxGeometry x="90" y="205" width="120" height="60" as="geometry" />
        </mxCell>
        <mxCell id="4CS2FM6U55fI_8ZflwGE-13" value="" style="edgeStyle=orthogonalEdgeStyle;rounded=0;orthogonalLoop=1;jettySize=auto;html=1;" parent="4CS2FM6U55fI_8ZflwGE-10" source="4CS2FM6U55fI_8ZflwGE-14" target="4CS2FM6U55fI_8ZflwGE-15" edge="1">
          <mxGeometry relative="1" as="geometry" />
        </mxCell>
        <mxCell id="4CS2FM6U55fI_8ZflwGE-14" value="校验参数？" style="rhombus;whiteSpace=wrap;html=1;fontSize=8;fontFamily=Verdana;fillColor=#ffe6cc;strokeColor=#d79b00;rounded=1;shadow=0;labelBackgroundColor=none;strokeWidth=1;sketch=1;fillStyle=auto;" parent="4CS2FM6U55fI_8ZflwGE-10" vertex="1">
          <mxGeometry x="110" y="432" width="80" height="80" as="geometry" />
        </mxCell>
        <mxCell id="4CS2FM6U55fI_8ZflwGE-15" value="&lt;span style=&quot;font-family: Helvetica; font-size: 12px;&quot;&gt;业务处理，定期推送任务状态&lt;/span&gt;" style="whiteSpace=wrap;html=1;fontSize=8;fontFamily=Verdana;fillColor=#e1d5e7;strokeColor=#9673a6;rounded=1;shadow=0;labelBackgroundColor=none;strokeWidth=1;sketch=1;fillStyle=auto;" parent="4CS2FM6U55fI_8ZflwGE-10" vertex="1">
          <mxGeometry x="90" y="565" width="120" height="60" as="geometry" />
        </mxCell>
        <mxCell id="4CS2FM6U55fI_8ZflwGE-16" value="返回任务是否正常发起" style="text;html=1;align=center;verticalAlign=middle;resizable=0;points=[];autosize=1;strokeColor=none;fillColor=none;" parent="4CS2FM6U55fI_8ZflwGE-10" vertex="1">
          <mxGeometry x="-60" y="472" width="140" height="30" as="geometry" />
        </mxCell>
        <mxCell id="4CS2FM6U55fI_8ZflwGE-17" value="True，组织业务消息，分发处理" style="text;html=1;align=center;verticalAlign=middle;resizable=0;points=[];autosize=1;strokeColor=none;fillColor=none;" parent="4CS2FM6U55fI_8ZflwGE-10" vertex="1">
          <mxGeometry x="-120" y="205" width="190" height="30" as="geometry" />
        </mxCell>
        <mxCell id="4CS2FM6U55fI_8ZflwGE-18" value="任务执行成功，通知Etcd取消映射&amp;amp;回收卷" style="text;html=1;align=center;verticalAlign=middle;resizable=0;points=[];autosize=1;strokeColor=none;fillColor=none;" parent="4CS2FM6U55fI_8ZflwGE-10" vertex="1">
          <mxGeometry x="25" y="705" width="250" height="30" as="geometry" />
        </mxCell>
        <mxCell id="4CS2FM6U55fI_8ZflwGE-25" value="信息写入Etcd成功即可，不再监听后续任务情况" style="text;html=1;align=center;verticalAlign=middle;resizable=0;points=[];autosize=1;strokeColor=none;fillColor=none;" parent="4CS2FM6U55fI_8ZflwGE-10" vertex="1">
          <mxGeometry x="10" y="730" width="280" height="30" as="geometry" />
        </mxCell>
        <mxCell id="4CS2FM6U55fI_8ZflwGE-19" value="&lt;span style=&quot;font-size: 14px;&quot;&gt;ETCD&lt;/span&gt;" style="swimlane;html=1;startSize=40;" parent="4CS2FM6U55fI_8ZflwGE-1" vertex="1">
          <mxGeometry x="690" y="60" width="330" height="790" as="geometry">
            <mxRectangle x="250" y="20" width="40" height="730" as="alternateBounds" />
          </mxGeometry>
        </mxCell>
        <mxCell id="4CS2FM6U55fI_8ZflwGE-20" value="StorageEngine" style="whiteSpace=wrap;html=1;fontSize=8;fontFamily=Verdana;fillColor=#f8cecc;strokeColor=#b85450;rounded=1;shadow=0;labelBackgroundColor=none;strokeWidth=1;sketch=1;fillStyle=auto;" parent="4CS2FM6U55fI_8ZflwGE-19" vertex="1">
          <mxGeometry x="105" y="700" width="120" height="60" as="geometry" />
        </mxCell>
        <mxCell id="4CS2FM6U55fI_8ZflwGE-21" value="" style="edgeStyle=orthogonalEdgeStyle;rounded=0;orthogonalLoop=1;jettySize=auto;html=1;" parent="4CS2FM6U55fI_8ZflwGE-1" source="4CS2FM6U55fI_8ZflwGE-5" target="4CS2FM6U55fI_8ZflwGE-12" edge="1">
          <mxGeometry relative="1" as="geometry" />
        </mxCell>
        <mxCell id="4CS2FM6U55fI_8ZflwGE-22" value="" style="edgeStyle=orthogonalEdgeStyle;rounded=0;orthogonalLoop=1;jettySize=auto;html=1;" parent="4CS2FM6U55fI_8ZflwGE-1" source="4CS2FM6U55fI_8ZflwGE-14" target="4CS2FM6U55fI_8ZflwGE-8" edge="1">
          <mxGeometry relative="1" as="geometry" />
        </mxCell>
        <mxCell id="4CS2FM6U55fI_8ZflwGE-23" value="" style="edgeStyle=orthogonalEdgeStyle;rounded=0;orthogonalLoop=1;jettySize=auto;html=1;entryX=0.69;entryY=1.07;entryDx=0;entryDy=0;entryPerimeter=0;" parent="4CS2FM6U55fI_8ZflwGE-1" source="4CS2FM6U55fI_8ZflwGE-15" target="4CS2FM6U55fI_8ZflwGE-8" edge="1">
          <mxGeometry relative="1" as="geometry">
            <mxPoint x="80" y="630" as="targetPoint" />
          </mxGeometry>
        </mxCell>
        <mxCell id="4CS2FM6U55fI_8ZflwGE-24" value="" style="edgeStyle=orthogonalEdgeStyle;rounded=0;orthogonalLoop=1;jettySize=auto;html=1;entryX=0;entryY=0.5;entryDx=0;entryDy=0;" parent="4CS2FM6U55fI_8ZflwGE-1" source="4CS2FM6U55fI_8ZflwGE-8" target="4CS2FM6U55fI_8ZflwGE-20" edge="1">
          <mxGeometry relative="1" as="geometry">
            <mxPoint x="130" y="780" as="targetPoint" />
            <Array as="points">
              <mxPoint x="130" y="790" />
            </Array>
          </mxGeometry>
        </mxCell>
      </root>
    </mxGraphModel>
  </diagram>
</mxfile>
